<?xml version="1.0" standalone="no"?>
<!DOCTYPE svg PUBLIC "-//W3C//DTD SVG 20010904//EN"
 "http://www.w3.org/TR/2001/REC-SVG-20010904/DTD/svg10.dtd">
<svg version="1.0" xmlns="http://www.w3.org/2000/svg"
 width="1024.000000pt" height="1024.000000pt" viewBox="0 0 1024.000000 1024.000000"
 preserveAspectRatio="xMidYMid meet">

<g transform="translate(0.000000,1024.000000) scale(0.100000,-0.100000)"
fill="#000000" stroke="none">
<path d="M5048 8961 c-182 -59 -283 -195 -283 -381 1 -130 54 -255 138 -326
29 -24 127 -75 170 -88 16 -5 17 -46 17 -683 l0 -678 68 -45 c87 -58 85 -58
77 -20 -4 18 -4 345 0 726 l8 692 58 22 c110 40 192 124 239 245 33 83 33 224
1 307 -26 67 -103 157 -167 194 -93 55 -221 68 -326 35z m241 -194 c64 -43 95
-97 99 -177 5 -84 -10 -131 -57 -183 -91 -101 -235 -104 -327 -5 -88 93 -95
214 -17 316 63 83 213 107 302 49z"/>
<path d="M5103 8671 c-61 -39 -79 -109 -43 -169 54 -88 188 -73 220 24 36 108
-83 204 -177 145z"/>
<path d="M5710 8585 l0 -73 48 -7 c181 -27 567 -157 706 -239 40 -23 43 -29
58 -98 9 -40 14 -77 11 -83 -2 -5 -22 -23 -44 -39 l-41 -29 -92 42 c-50 24
-96 45 -102 47 -6 3 -41 -30 -77 -73 l-65 -78 16 -30 c8 -16 32 -56 53 -88 22
-32 39 -65 39 -74 0 -8 -11 -36 -25 -62 l-26 -47 -106 1 -107 0 -18 -85 c-28
-137 -30 -131 65 -181 l82 -44 3 -67 3 -66 -97 -46 c-86 -41 -96 -48 -91 -68
3 -13 16 -67 28 -120 l22 -97 97 6 97 6 23 -62 c17 -46 28 -63 46 -67 13 -3
24 -10 24 -14 0 -4 30 -20 68 -35 165 -66 460 -202 496 -230 54 -41 78 -79
112 -172 15 -43 37 -87 48 -99 12 -11 31 -57 45 -105 12 -46 25 -90 27 -96 2
-9 32 -13 102 -13 l99 0 23 88 c31 119 45 152 67 152 10 1 35 7 56 14 l38 14
71 -83 71 -84 36 15 c20 9 60 25 90 37 l53 22 -5 105 c-3 58 -8 114 -12 126
-5 17 2 27 43 53 l49 31 86 -41 c48 -23 93 -39 100 -36 15 5 137 153 137 165
0 4 -29 46 -65 94 -36 47 -65 91 -65 96 0 5 9 32 21 60 25 59 31 62 152 62 48
0 87 2 87 4 0 3 9 50 20 106 11 56 20 107 20 115 0 7 -43 30 -95 51 l-95 39 0
58 c0 31 -1 60 -2 65 -2 4 22 20 52 36 30 16 74 39 96 52 l42 23 -19 93 c-11
51 -22 100 -24 108 -4 12 -27 15 -112 17 -118 2 -120 3 -150 72 -14 32 -13 36
9 65 12 17 42 59 65 94 49 72 51 64 -34 156 -29 31 -57 56 -64 56 -6 0 -54
-20 -107 -45 -102 -49 -96 -49 -153 3 -26 23 -26 25 -13 69 8 26 14 78 14 118
l0 71 -79 42 c-43 23 -83 42 -89 42 -5 0 -40 -41 -77 -91 -47 -62 -72 -88 -83
-84 -8 3 -34 10 -58 16 -40 10 -45 15 -55 53 -6 22 -18 68 -27 101 -8 33 -20
66 -25 73 -6 8 -40 12 -103 12 -109 0 -100 8 -138 -129 -14 -51 -27 -95 -28
-96 -2 -2 -31 -7 -65 -12 l-61 -10 -63 86 c-35 47 -64 88 -65 89 -1 2 -34 -7
-73 -19 -66 -21 -72 -22 -89 -6 -78 71 -541 229 -774 265 l-58 9 0 -72z m1535
-700 c183 -38 362 -177 444 -345 55 -113 75 -208 68 -330 -10 -173 -72 -307
-201 -435 -130 -129 -267 -184 -460 -185 -183 0 -345 74 -476 217 -66 72 -103
138 -137 238 -22 67 -26 99 -27 195 -1 174 37 290 134 411 157 196 408 286
655 234z"/>
<path d="M7005 7461 c-83 -38 -135 -120 -135 -211 0 -62 17 -104 61 -155 45
-51 100 -75 174 -75 105 0 182 54 220 154 30 78 4 186 -57 243 -64 60 -185 80
-263 44z m144 -157 c36 -32 39 -38 30 -62 -14 -38 -49 -72 -73 -72 -27 0 -86
59 -86 86 0 21 60 84 80 84 6 0 28 -16 49 -36z"/>
<path d="M4435 8600 c-129 -33 -298 -87 -411 -131 -27 -11 -35 -10 -62 10
-103 73 -229 59 -311 -35 -41 -47 -51 -73 -51 -139 l0 -53 -87 -47 c-105 -57
-281 -168 -379 -241 l-72 -52 -43 44 c-148 151 -394 149 -547 -3 -72 -71 -103
-142 -109 -247 -8 -125 34 -235 118 -311 l41 -36 -59 -72 c-221 -269 -384
-532 -510 -823 l-31 -71 -73 -5 c-231 -15 -395 -229 -349 -454 30 -145 139
-266 271 -297 35 -9 38 -30 40 -302 2 -200 13 -424 23 -451 3 -8 22 -8 68 1
l63 11 -2 65 c-1 35 -5 200 -9 365 l-7 301 51 17 c146 49 247 176 267 336 l7
55 132 -3 133 -3 413 425 413 424 55 4 54 3 66 -70 c185 -197 425 -445 431
-445 4 0 17 21 30 48 13 26 37 67 55 92 l31 45 5 344 5 344 37 13 37 13 196
-204 197 -204 46 6 c26 3 50 8 54 12 4 3 -92 109 -213 235 -161 168 -218 233
-213 245 15 37 24 93 18 119 -41 174 -238 239 -359 117 -108 -107 -65 -290 80
-345 l25 -10 0 -380 0 -381 -29 20 c-16 11 -43 38 -61 58 -18 21 -74 81 -124
133 -50 52 -122 127 -160 167 l-68 72 33 46 c44 61 52 150 20 212 -41 81 -133
132 -214 119 -48 -8 -105 -37 -134 -68 -66 -70 -69 -196 -7 -263 l25 -27 -128
-132 c-70 -72 -242 -247 -383 -388 l-255 -258 -136 0 -136 0 -28 41 c-16 22
-55 64 -87 94 l-59 54 27 63 c102 245 301 559 494 779 l65 74 80 0 c70 1 89 5
150 35 94 45 183 134 216 215 18 46 24 81 25 153 l2 93 78 61 c107 83 281 197
383 251 l85 46 47 -25 c124 -62 276 1 309 128 6 24 14 54 18 67 5 18 24 31 75
52 111 46 264 95 390 125 107 26 118 31 113 49 -3 11 -6 41 -6 68 0 38 -3 47
-17 47 -10 -1 -85 -18 -168 -40z m-565 -250 c27 -27 25 -66 -5 -95 -30 -30
-54 -31 -89 -4 -50 40 -21 119 44 119 17 0 39 -9 50 -20z m-1067 -461 c44 -12
111 -68 134 -113 20 -39 21 -130 1 -176 -51 -119 -207 -166 -311 -94 -47 33
-97 119 -97 167 0 112 105 225 210 227 14 0 42 -5 63 -11z m1291 -398 c24 -26
17 -70 -15 -94 -61 -45 -133 38 -82 95 21 24 75 23 97 -1z m-631 -343 c9 -7
19 -25 22 -40 5 -21 1 -33 -19 -52 -32 -33 -60 -33 -91 -1 -30 29 -31 45 -4
79 22 28 64 35 92 14z m-1482 -951 c129 -68 146 -242 34 -346 -129 -119 -347
-23 -349 154 -1 73 36 141 98 183 42 28 57 32 111 32 45 0 73 -6 106 -23z"/>
<path d="M2692 7770 c-56 -35 -68 -100 -26 -149 48 -57 135 -47 169 19 22 43
18 76 -12 110 -37 41 -86 48 -131 20z"/>
<path d="M1834 6105 c-16 -9 -38 -29 -47 -44 -26 -45 -21 -79 17 -117 44 -44
99 -47 144 -9 90 76 -8 223 -114 170z"/>
<path d="M5504 7066 c-85 -40 -129 -103 -150 -218 -6 -34 -4 -38 15 -38 20 0
21 -5 21 -105 0 -97 -2 -106 -21 -113 l-20 -8 20 -25 c21 -27 77 -135 104
-201 l16 -38 73 40 c103 55 188 73 313 67 116 -6 239 -39 360 -96 115 -55 129
-73 134 -177 11 -268 -149 -505 -405 -595 -45 -16 -92 -23 -196 -27 l-138 -5
0 -37 c0 -85 -61 -227 -131 -308 l-29 -33 0 -539 c0 -297 -2 -540 -5 -540 -13
0 -80 32 -85 40 -3 5 -5 249 -5 542 l0 533 48 76 c64 103 84 164 92 286 l8
103 136 -6 c106 -5 151 -3 204 10 191 45 336 182 380 361 8 33 18 85 22 116
l6 56 -58 26 c-115 51 -271 97 -350 103 -100 8 -173 -15 -288 -91 -46 -30 -89
-57 -97 -60 -10 -4 -26 7 -43 27 -26 31 -45 66 -123 240 -61 134 -218 257
-387 303 -239 64 -521 -3 -685 -164 -56 -55 -76 -84 -119 -176 -29 -60 -58
-121 -64 -134 -7 -13 -28 -42 -47 -64 l-36 -40 -34 18 c-19 9 -59 35 -88 57
-91 68 -134 83 -242 82 -89 0 -106 -4 -269 -58 l-174 -58 6 -72 c13 -145 68
-259 175 -358 117 -108 206 -134 430 -125 l152 7 0 -58 c0 -130 33 -238 111
-364 l29 -48 0 -199 c0 -224 11 -325 45 -424 l23 -67 -36 32 c-51 44 -68 68
-99 135 -25 55 -27 68 -31 242 l-5 184 -436 -7 c-800 -12 -808 -13 -952 -84
-78 -39 -95 -51 -97 -72 l-3 -25 303 -1 c167 -1 455 -2 641 -3 l337 -1 -1
-167 c-1 -93 -4 -211 -8 -264 l-6 -96 -119 130 -120 130 -112 -119 c-62 -65
-109 -122 -106 -125 4 -4 68 -14 142 -23 628 -79 1362 -362 1950 -751 198
-131 314 -225 471 -379 177 -175 341 -386 484 -624 20 -35 42 -65 49 -68 6 -2
46 14 89 37 75 39 78 42 64 62 -8 12 -43 69 -78 125 -134 217 -329 454 -511
623 -215 200 -405 337 -751 543 -81 49 -150 92 -153 97 -6 10 65 -10 200 -57
182 -62 463 -227 661 -387 94 -76 345 -330 431 -437 81 -101 165 -221 253
-362 46 -73 78 -115 85 -111 6 4 43 28 82 53 l71 47 -66 104 c-77 123 -165
246 -270 379 -99 125 -340 367 -466 466 -128 101 -324 229 -442 289 -51 25
-93 50 -93 55 0 13 95 49 227 86 263 71 873 174 1189 200 l84 7 2 583 3 582
38 -34 38 -35 -1 -352 c-1 -485 9 -740 27 -733 8 3 102 8 211 11 108 3 221 8
250 11 l52 5 -2 392 -3 392 -130 97 c-71 54 -231 172 -355 262 -263 192 -297
221 -306 260 l-7 28 58 -37 c32 -20 151 -104 264 -187 400 -293 516 -378 543
-398 l27 -21 35 47 c20 26 36 50 36 53 0 7 -309 239 -605 453 -110 80 -207
154 -216 164 -9 11 -48 111 -88 224 -39 113 -76 220 -83 237 -14 37 -20 41
-373 198 -266 118 -307 127 -461 101 -166 -28 -410 -51 -384 -37 14 7 112 30
215 49 l40 8 3 106 3 105 -131 8 -130 7 0 35 0 35 125 -4 c69 -2 125 0 125 4
0 17 -77 92 -107 105 -51 21 -140 16 -199 -11z m-623 -500 c125 -27 214 -87
259 -176 26 -51 28 -61 18 -99 -6 -23 -27 -60 -49 -84 l-38 -42 6 35 c3 19 6
37 6 40 3 21 -16 110 -23 110 -5 0 -28 -29 -51 -65 -74 -117 -154 -165 -273
-165 -68 1 -154 31 -203 71 -17 13 -53 54 -82 92 -29 37 -56 67 -62 67 -15 0
-10 -113 7 -163 23 -67 92 -140 171 -179 56 -28 79 -33 157 -36 115 -5 192 9
281 52 82 39 147 93 185 153 l28 43 28 -47 c15 -27 38 -62 50 -79 18 -23 54
-103 54 -119 0 -1 -26 -5 -58 -7 -148 -14 -262 -119 -262 -242 0 -45 27 -95
57 -107 37 -14 67 -4 111 36 36 33 37 35 37 110 0 86 2 89 78 97 l47 6 0 -132
c0 -72 -5 -151 -11 -176 -5 -25 -39 -106 -74 -180 -89 -190 -99 -252 -70 -446
31 -203 16 -289 -62 -368 -52 -53 -82 -71 -136 -81 -33 -6 -37 -11 -37 -36 l0
-29 -250 0 -250 0 0 30 c0 24 -4 30 -22 30 -70 0 -184 102 -214 192 -18 54
-16 144 6 328 16 141 0 229 -66 362 -69 137 -87 209 -92 367 l-5 144 49 -8
c76 -11 78 -13 79 -99 0 -73 1 -77 36 -112 30 -29 45 -37 78 -38 124 -3 134
178 14 283 -43 38 -120 67 -198 73 -28 3 -30 6 -27 38 1 23 20 60 52 106 27
39 70 120 96 180 70 159 146 226 304 268 71 19 236 20 321 2z m-1156 -465 c79
-39 163 -114 192 -172 26 -51 22 -58 -50 -90 -43 -19 -70 -23 -157 -23 -99 -1
-109 1 -172 32 -87 43 -155 121 -182 209 -9 27 8 37 107 64 100 27 179 21 262
-20z m2285 7 c84 -27 85 -29 48 -106 -28 -58 -102 -133 -163 -162 -44 -22 -63
-25 -160 -25 -99 0 -116 3 -167 27 -32 15 -58 32 -58 38 0 18 37 85 65 118 39
46 122 104 179 124 65 24 152 18 256 -14z m410 -843 c0 -107 0 -198 0 -202 0
-5 -66 -8 -147 -8 l-148 0 -3 203 -2 202 150 0 150 0 0 -195z m980 -340 l0
-125 -114 0 c-134 0 -126 -10 -126 148 l0 102 120 0 120 0 0 -125z m-980 -280
l0 -315 -22 -5 c-13 -3 -79 -4 -148 -3 l-125 3 -3 318 -2 317 150 0 150 0 0
-315z"/>
<path d="M4665 5184 c-118 -30 -206 -87 -279 -182 -25 -33 -46 -63 -46 -66 0
-3 19 7 43 23 62 41 165 79 247 91 135 19 323 -20 424 -88 25 -17 46 -29 46
-26 0 16 -66 97 -111 138 -70 63 -159 104 -239 110 -36 3 -74 3 -85 0z"/>
<path d="M4399 4836 c-21 -10 -24 -19 -24 -72 0 -49 5 -68 28 -102 78 -118
246 -101 223 23 -16 85 -163 183 -227 151z"/>
<path d="M4930 4812 c-59 -30 -106 -85 -116 -138 -4 -24 0 -37 21 -62 46 -55
129 -41 193 33 38 42 44 64 40 136 l-3 54 -40 3 c-28 1 -57 -6 -95 -26z"/>
<path d="M6180 5265 l0 -135 95 0 95 0 0 135 0 135 -95 0 -95 0 0 -135z m118
53 c-2 -35 -7 -43 -23 -43 -16 0 -21 8 -23 43 -3 39 -2 42 23 42 25 0 26 -3
23 -42z"/>
<path d="M7224 4963 c4 -21 2 -53 -3 -70 l-10 -33 66 0 c63 0 65 1 59 23 -3
12 -6 41 -6 64 l0 42 -34 -6 c-18 -3 -43 0 -56 7 -21 11 -22 11 -16 -27z"/>
<path d="M6180 4810 l0 -91 63 79 c89 110 89 102 8 102 l-71 0 0 -90z"/>
<path d="M6271 4749 l-91 -120 0 -95 c0 -51 2 -94 4 -94 3 0 43 53 90 118 l85
118 7 97 c4 53 4 97 2 97 -3 0 -47 -54 -97 -121z"/>
<path d="M6305 4506 c-33 -43 -66 -87 -74 -97 -13 -18 -10 -19 58 -19 50 0 73
4 77 13 3 8 4 52 2 98 l-3 84 -60 -79z"/>
<path d="M8333 6465 c-63 -27 -92 -119 -58 -185 24 -47 62 -70 115 -70 138 0
183 192 60 255 -36 19 -75 19 -117 0z"/>
<path d="M8387 5870 c-102 -26 -199 -106 -243 -203 -26 -56 -29 -72 -29 -167
0 -95 3 -111 29 -167 45 -99 169 -202 244 -203 19 0 22 -5 23 -42 5 -228 -56
-559 -167 -899 -24 -75 -44 -138 -44 -141 0 -8 129 -62 134 -57 2 2 24 68 49
146 49 151 97 337 121 468 9 44 18 94 21 110 3 17 14 115 25 219 11 104 21
190 22 191 2 1 25 9 51 19 106 39 190 133 227 255 24 76 25 114 4 195 -43 167
-172 272 -346 281 -46 2 -100 0 -121 -5z m194 -188 c129 -67 146 -247 32 -341
-95 -78 -214 -61 -297 42 -42 52 -49 144 -16 212 52 107 172 144 281 87z"/>
<path d="M8433 5588 c-29 -14 -53 -66 -46 -101 8 -39 57 -77 100 -77 66 0 113
77 87 145 -15 37 -94 56 -141 33z"/>
<path d="M3530 5533 c-8 -3 -58 -31 -110 -61 -52 -31 -201 -116 -330 -190
-129 -73 -242 -140 -250 -149 -14 -14 4 -15 180 -9 336 10 731 27 831 34 l97
7 -39 64 c-53 87 -79 163 -86 243 l-6 68 -136 -1 c-75 0 -143 -3 -151 -6z"/>
<path d="M3280 4646 l0 -194 99 101 100 100 -19 26 c-27 38 -156 161 -169 161
-8 0 -11 -60 -11 -194z"/>
<path d="M2610 4625 l0 -205 106 0 c93 0 105 2 100 16 -3 9 -6 101 -6 205 l0
189 -100 0 -100 0 0 -205z"/>
<path d="M2880 4684 l0 -148 72 69 c40 39 74 71 77 72 9 5 -117 148 -133 151
-14 3 -16 -13 -16 -144z"/>
<path d="M2982 4820 c3 -10 209 -260 214 -260 1 0 2 61 1 135 l-2 135 -108 0
c-65 0 -107 -4 -105 -10z"/>
<path d="M3422 4811 c8 -11 57 -68 110 -128 52 -59 107 -121 121 -138 l26 -30
1 158 0 157 -136 0 c-131 0 -135 -1 -122 -19z"/>
<path d="M2993 4598 c-28 -35 -65 -76 -82 -92 -22 -21 -31 -39 -31 -61 l0 -32
143 -12 c142 -12 181 -14 205 -12 19 2 14 29 -10 64 -23 33 -167 207 -172 207
-1 0 -25 -28 -53 -62z"/>
<path d="M1945 4633 c-33 -7 -63 -17 -67 -21 -12 -12 48 -267 109 -457 218
-683 621 -1252 1183 -1669 361 -268 850 -494 1265 -586 71 -15 106 -28 120
-44 51 -55 119 -72 180 -44 71 32 89 140 35 202 -55 62 -126 68 -192 17 -22
-18 -27 -17 -178 25 -638 175 -1159 486 -1593 952 -357 383 -638 929 -762
1477 -14 61 -25 120 -25 132 0 31 -7 32 -75 16z"/>
<path d="M2420 4268 c0 -7 17 -63 37 -125 l37 -113 845 0 c464 0 842 2 840 4
-9 7 -280 86 -394 115 -149 37 -384 76 -576 96 -323 33 -789 47 -789 23z"/>
<path d="M7310 4243 c-427 -16 -875 -80 -1339 -191 l-114 -27 1004 3 c552 1
1007 6 1010 10 7 7 69 192 69 205 0 6 -456 7 -630 0z"/>
<path d="M2621 3773 c29 -54 59 -108 67 -120 l14 -23 1192 1 1191 0 -239 120
-239 119 -1019 0 -1020 0 53 -97z"/>
<path d="M6070 3866 c0 -3 32 -29 71 -60 39 -30 100 -82 135 -115 l64 -61 668
0 668 0 63 120 62 120 -865 0 c-476 0 -866 -2 -866 -4z"/>
<path d="M8070 3756 c-72 -157 -246 -427 -382 -592 -161 -195 -414 -433 -613
-576 -390 -281 -826 -471 -1302 -567 -144 -29 -188 -36 -323 -50 l-65 -6 2
-34 c0 -18 4 -49 8 -68 l6 -35 82 7 c210 17 555 91 767 163 318 109 675 296
931 489 388 293 670 600 892 971 86 143 160 293 150 302 -4 5 -34 20 -66 34
l-58 26 -29 -64z"/>
<path d="M2807 3468 c5 -7 47 -61 94 -120 l84 -108 830 0 c457 0 1057 -3 1335
-7 l505 -6 -65 55 c-36 30 -107 87 -159 126 l-93 72 -1270 0 c-1015 0 -1269
-3 -1261 -12z"/>
<path d="M6514 3448 c14 -18 56 -72 93 -120 l68 -88 360 1 360 0 85 110 c47
61 87 115 88 120 2 5 -215 9 -538 9 l-543 0 27 -32z"/>
<path d="M3203 3081 l-72 -6 98 -83 c54 -46 122 -101 151 -123 l52 -39 1294 0
c712 0 1294 3 1294 8 0 8 -196 233 -213 244 -14 9 -2494 7 -2604 -1z"/>
<path d="M6802 3073 c7 -16 149 -223 152 -223 8 0 137 109 202 170 l65 60
-211 0 c-117 0 -210 -3 -208 -7z"/>
<path d="M3705 2654 c90 -55 217 -116 350 -170 l120 -49 970 -3 c893 -3 975
-2 1030 14 33 10 63 20 68 24 7 6 -88 166 -120 203 -15 16 -87 17 -1247 17
l-1231 0 60 -36z"/>
<path d="M4915 2280 c-172 -5 -165 -9 50 -30 169 -16 442 -8 565 17 80 17
-287 24 -615 13z"/>
</g>
</svg>
