<?xml version="1.0" standalone="no"?>
<!DOCTYPE svg PUBLIC "-//W3C//DTD SVG 20010904//EN"
 "http://www.w3.org/TR/2001/REC-SVG-20010904/DTD/svg10.dtd">
<svg version="1.0" xmlns="http://www.w3.org/2000/svg"
 width="779.000000pt" height="723.000000pt" viewBox="0 0 779.000000 723.000000"
 preserveAspectRatio="xMidYMid meet">

<g transform="translate(0.000000,723.000000) scale(0.100000,-0.100000)"
fill="#000000" stroke="none">
<path d="M2065 6561 c-78 -34 -122 -197 -112 -420 5 -137 21 -198 82 -326 60
-125 188 -270 312 -353 l40 -27 -35 -73 -34 -72 -73 52 c-40 29 -100 74 -135
100 -107 82 -231 106 -384 73 -188 -40 -326 -131 -326 -214 0 -49 72 -153 185
-267 92 -93 123 -118 192 -152 45 -22 108 -46 140 -52 78 -17 245 -8 301 15
51 21 56 17 66 -49 11 -68 45 -163 117 -327 38 -86 76 -188 84 -225 17 -81 19
-252 4 -323 -13 -63 1 -50 -634 -576 -132 -109 -264 -221 -292 -248 -36 -34
-54 -45 -58 -36 -18 52 -46 238 -55 369 -29 400 48 797 219 1138 33 65 38 82
25 82 -26 0 -126 57 -191 110 -70 56 -64 59 -117 -47 -179 -359 -277 -856
-247 -1259 51 -687 295 -1271 746 -1785 294 -335 709 -605 1161 -757 651 -218
1398 -159 2014 159 253 131 449 277 670 498 384 384 661 893 779 1426 46 211
64 371 64 590 -1 328 -40 568 -143 870 -51 151 -208 469 -295 600 -214 321
-466 574 -775 778 -96 64 -345 192 -447 231 l-43 16 0 -28 c0 -49 -29 -162
-55 -219 -14 -31 -24 -57 -22 -59 1 -2 54 -17 117 -34 255 -69 379 -143 467
-278 19 -30 101 -120 182 -200 355 -353 594 -810 677 -1292 21 -121 26 -180
26 -350 2 -341 -46 -602 -168 -917 -52 -135 -147 -324 -215 -428 l-49 -76
-128 113 c-315 279 -446 448 -474 610 -13 79 -4 246 18 318 9 30 33 89 54 130
46 92 90 212 90 247 0 20 3 24 18 18 153 -67 268 -59 399 26 105 69 213 205
213 269 0 78 -146 183 -294 211 -93 17 -202 -17 -296 -91 -21 -17 -40 -30 -42
-30 -3 0 -11 19 -18 43 -7 23 -23 64 -37 90 -13 27 -23 50 -21 50 71 34 113
63 163 112 112 111 148 233 120 416 -21 143 -51 189 -123 189 -45 0 -88 -43
-97 -96 -28 -184 -76 -252 -214 -304 -71 -27 -86 -26 -155 19 -146 95 -276
133 -451 133 -94 0 -140 -5 -213 -24 -79 -21 -92 -22 -87 -9 13 34 35 154 35
192 0 21 2 39 3 39 2 0 30 -9 63 -21 130 -46 306 -33 442 31 119 56 264 189
350 320 64 98 56 150 -33 218 -93 71 -270 118 -411 109 -107 -6 -170 -36 -324
-151 -63 -47 -117 -82 -120 -78 -3 4 -19 36 -35 71 -29 61 -29 64 -11 75 43
25 183 147 218 188 167 204 232 424 197 673 -23 167 -65 248 -134 261 -78 14
-136 -34 -150 -126 -40 -269 -173 -453 -403 -562 l-84 -40 -59 42 c-82 57
-229 125 -319 147 -107 26 -297 23 -405 -6 -93 -25 -204 -75 -292 -133 -72
-46 -77 -46 -182 5 -77 37 -193 142 -247 224 -50 76 -82 160 -109 287 -28 129
-47 156 -116 162 -24 2 -53 0 -64 -5z m1379 -846 c272 -71 496 -302 567 -585
18 -71 21 -103 16 -200 -5 -126 -23 -195 -82 -325 -97 -212 -144 -408 -152
-635 l-5 -145 38 -85 c66 -146 59 -278 -20 -368 -41 -47 -81 -62 -164 -62 -87
0 -163 22 -207 61 -41 37 -50 62 -35 98 13 31 35 45 96 60 75 20 114 94 80
158 -22 43 -44 45 -122 10 -54 -23 -88 -31 -155 -35 -82 -4 -90 -3 -172 32
-70 30 -90 35 -106 26 -44 -23 -54 -84 -23 -135 21 -33 47 -49 109 -65 101
-25 96 -123 -9 -174 -62 -30 -176 -50 -235 -41 -104 15 -167 110 -167 250 0
71 5 92 42 184 40 98 42 108 42 205 0 205 -50 434 -142 650 -80 190 -92 238
-91 371 0 135 18 206 83 341 37 77 66 119 121 178 162 173 315 244 529 245 64
1 129 -5 164 -14z m1297 -1304 c129 -41 253 -143 329 -270 113 -190 128 -399
43 -601 -60 -144 -83 -236 -118 -480 -30 -201 -39 -243 -64 -292 l-29 -58 38
-74 c61 -117 64 -196 12 -258 -73 -87 -244 -91 -288 -6 -20 38 -10 83 22 106
68 47 84 65 84 91 0 15 -6 35 -13 46 -12 15 -21 17 -63 10 -62 -10 -185 -10
-246 0 -58 9 -78 -4 -78 -50 0 -26 7 -39 31 -57 68 -52 79 -66 79 -106 0 -30
-7 -45 -31 -68 -28 -27 -36 -29 -102 -29 -84 0 -136 21 -170 69 -18 25 -22 45
-22 101 0 61 5 81 41 155 l40 85 -23 42 c-53 94 -103 461 -101 743 1 154 -3
205 -22 305 -25 134 -29 297 -9 365 33 109 191 220 357 250 75 14 229 4 303
-19z m-2297 -967 c40 -196 162 -386 322 -500 117 -84 322 -164 420 -164 l33 0
-55 -114 c-80 -166 -114 -308 -121 -501 -7 -185 12 -331 63 -484 56 -168 160
-347 279 -478 l45 -51 -103 24 c-402 94 -778 300 -1094 601 l-83 78 -30 120
c-63 256 -77 567 -36 800 44 249 149 494 295 692 25 34 47 58 48 55 1 -4 9
-39 17 -78z m1053 -369 c-28 -26 -68 -51 -100 -61 -60 -20 -164 -23 -223 -6
-48 14 -131 67 -145 93 -9 18 -2 19 253 19 l263 -1 -48 -44z m1173 -960 c30
-8 71 -15 90 -15 l35 -1 -44 -39 c-102 -92 -277 -92 -375 0 l-41 39 40 1 c22
1 63 7 90 15 66 18 137 18 205 0z"/>
<path d="M2767 4943 c-23 -26 -22 -115 2 -168 23 -52 81 -102 127 -111 58 -11
69 2 72 84 3 80 -14 126 -66 176 -40 37 -109 47 -135 19z"/>
<path d="M3670 4934 c-43 -36 -69 -93 -76 -161 -7 -78 9 -107 59 -111 91 -8
177 92 177 205 0 69 -22 93 -84 93 -33 0 -52 -7 -76 -26z"/>
<path d="M4181 3661 c-17 -11 -10 -155 10 -192 23 -44 67 -61 113 -43 19 7 22
87 5 145 -20 64 -91 114 -128 90z"/>
<path d="M4910 3663 c-51 -19 -88 -80 -96 -161 -8 -72 6 -87 68 -79 61 8 75
31 83 132 9 104 -3 127 -55 108z"/>
</g>
</svg>
