<?xml version="1.0" standalone="no"?>
<!DOCTYPE svg PUBLIC "-//W3C//DTD SVG 20010904//EN"
 "http://www.w3.org/TR/2001/REC-SVG-20010904/DTD/svg10.dtd">
<svg version="1.0" xmlns="http://www.w3.org/2000/svg"
 width="691.000000pt" height="656.000000pt" viewBox="0 0 691.000000 656.000000"
 preserveAspectRatio="xMidYMid meet">

<g transform="translate(0.000000,656.000000) scale(0.100000,-0.100000)"
fill="#000000" stroke="none">
<path d="M1490 6281 c-184 -50 -299 -170 -331 -345 -22 -119 17 -245 105 -343
l47 -52 -39 -63 c-36 -58 -42 -63 -71 -60 -53 4 -111 40 -196 121 -69 66 -89
80 -141 94 -138 39 -267 11 -466 -101 -43 -24 -78 -49 -78 -56 0 -6 16 -28 36
-47 20 -18 61 -77 92 -129 73 -124 147 -202 231 -243 59 -28 75 -32 156 -31
82 0 96 3 165 35 74 36 170 59 170 41 0 -5 -17 -49 -39 -98 -89 -206 -188
-551 -227 -791 -22 -132 -30 -513 -14 -641 27 -222 76 -388 166 -562 84 -162
198 -301 330 -401 85 -65 90 -67 60 -18 -237 386 -277 802 -115 1196 46 114
111 227 179 311 27 34 50 63 50 65 0 1 -35 2 -78 3 -123 2 -202 47 -248 140
-32 65 -36 154 -9 233 21 65 31 71 27 17 -8 -94 46 -191 130 -234 60 -31 165
-44 249 -31 35 6 73 11 85 12 14 1 38 -17 73 -55 35 -38 75 -68 117 -89 59
-29 70 -31 132 -26 45 4 89 16 135 38 l69 32 58 -18 c36 -11 71 -15 92 -11 69
13 146 127 169 251 14 75 6 112 -36 174 -26 37 -44 85 -70 183 -19 73 -35 143
-35 154 0 12 13 48 30 79 16 31 30 63 30 71 0 21 14 17 39 -10 12 -13 50 -37
84 -52 52 -24 76 -28 147 -29 76 0 91 3 138 29 67 38 104 78 176 196 32 52 74
117 94 143 19 26 32 50 30 52 -2 3 -29 17 -59 33 -30 16 -94 50 -142 75 -77
41 -95 47 -149 47 -77 0 -130 -24 -206 -95 -65 -59 -91 -75 -124 -75 -20 0
-27 9 -44 63 l-21 63 35 39 c105 120 120 308 35 455 -50 88 -177 183 -274 205
-25 6 -23 2 21 -43 93 -97 141 -242 110 -338 -15 -46 -52 -98 -85 -120 -23
-15 -27 -14 -81 25 -70 50 -137 76 -241 92 -110 17 -200 2 -312 -52 -95 -46
-101 -46 -170 16 -130 117 -69 341 126 465 l47 30 -50 -1 c-27 0 -78 -8 -114
-18z m519 -516 c143 -34 261 -119 315 -226 21 -42 26 -67 26 -123 0 -61 -6
-84 -39 -158 -48 -108 -65 -177 -58 -232 10 -72 161 -434 196 -470 38 -40 39
-54 2 -67 -20 -7 -31 -20 -40 -48 -19 -65 -16 -74 24 -67 19 4 35 5 35 3 0 -3
-12 -25 -26 -51 -35 -63 -54 -72 -101 -46 -54 29 -101 25 -200 -16 -177 -73
-263 -26 -263 144 0 60 4 74 34 122 73 116 79 131 84 215 3 67 0 92 -21 156
-26 77 -71 159 -128 236 l-31 41 17 53 c22 65 16 169 -15 251 -11 31 -47 98
-79 149 -56 89 -58 94 -40 107 26 18 132 40 194 41 28 0 79 -6 114 -14z m-315
-527 c41 -58 -6 -116 -54 -68 -19 19 -27 69 -13 83 14 15 53 6 67 -15z m726
-77 c14 -27 13 -37 -6 -55 -23 -24 -53 -20 -60 8 -13 52 42 91 66 47z"/>
<path d="M2063 4546 c-46 -51 -45 -96 1 -142 23 -23 43 -34 64 -34 34 0 47 13
56 56 7 30 4 34 -36 56 -37 20 -44 29 -48 62 l-5 40 -32 -38z"/>
<path d="M2676 4643 c22 -73 29 -192 14 -265 -28 -145 -105 -254 -216 -309
-57 -28 -71 -31 -125 -26 -52 4 -69 1 -117 -21 -51 -24 -68 -27 -172 -27 -101
0 -121 3 -160 23 l-45 23 -57 -63 c-111 -120 -168 -272 -168 -445 0 -172 45
-323 167 -561 96 -188 108 -227 128 -417 21 -208 48 -370 96 -585 84 -368 90
-536 29 -825 -20 -94 -77 -268 -113 -345 -20 -41 -25 -45 -63 -48 l-41 -3 -9
318 c-5 175 -8 386 -8 468 1 132 25 446 40 531 5 30 3 31 -128 107 -73 43
-173 107 -223 142 -156 111 -351 307 -449 450 -26 38 -27 39 -20 10 26 -112
165 -476 304 -795 117 -268 149 -355 165 -446 28 -163 14 -392 -35 -573 -27
-96 -85 -221 -103 -221 -113 0 -442 -38 -486 -56 -69 -29 -4 -47 254 -74 617
-63 2160 -107 2870 -81 1125 41 1699 80 1778 122 19 11 19 13 3 24 -22 17
-194 42 -381 56 -82 6 -151 13 -153 14 -2 2 4 52 12 112 27 185 45 389 57 643
13 281 8 443 -21 654 -39 290 -21 456 94 836 78 258 94 331 102 464 7 111 -9
296 -31 360 -22 64 -10 54 30 -26 21 -40 67 -122 103 -183 156 -262 219 -460
229 -716 4 -113 2 -169 -12 -249 -23 -139 -25 -143 -77 -157 -71 -19 -132 -73
-170 -150 -32 -66 -33 -70 -32 -198 0 -118 3 -139 33 -230 18 -55 35 -131 38
-168 5 -57 9 -67 22 -62 97 36 274 199 328 301 46 86 67 175 59 248 -7 72 -44
155 -90 207 l-34 37 24 77 c43 137 57 258 51 459 -5 195 -26 310 -82 466 -157
434 -553 813 -962 920 -170 45 -356 44 -723 -2 -222 -27 -468 -29 -627 -5
-211 33 -460 114 -781 253 -68 30 -125 54 -127 54 -2 0 3 -21 11 -47z m1868
-803 c115 -55 144 -239 80 -515 -54 -238 -64 -303 -64 -439 0 -258 38 -367
302 -866 181 -342 202 -622 73 -990 -20 -58 -57 -144 -82 -192 l-45 -88 -323
0 -324 0 -16 23 c-9 12 -26 54 -38 92 -20 63 -22 88 -20 248 l3 178 52 82 c29
45 79 118 112 162 32 44 71 103 87 131 53 93 94 116 240 136 84 11 97 15 127
44 25 25 32 40 32 71 0 33 -8 49 -55 103 -52 60 -75 108 -75 157 0 58 -48 123
-115 154 -78 36 -177 18 -253 -46 l-33 -28 -37 35 c-62 58 -91 71 -167 76 -87
5 -98 -3 -84 -68 15 -67 54 -126 101 -154 37 -22 40 -26 23 -33 -22 -9 -366
-10 -815 -3 -279 5 -286 5 -326 -17 -23 -12 -54 -36 -68 -54 -34 -40 -80 -131
-96 -187 -9 -36 -14 -41 -25 -32 -22 18 -85 -19 -113 -66 -30 -50 -25 -121 14
-218 l28 -69 25 31 c53 62 95 146 118 231 25 95 51 161 65 161 4 0 8 -7 8 -16
0 -10 14 -60 31 -112 45 -142 33 -181 -85 -277 -70 -58 -106 -125 -106 -201 0
-64 25 -253 44 -337 13 -56 31 -108 61 -179 7 -17 -8 -18 -220 -18 -211 0
-226 1 -221 18 3 9 10 172 16 362 15 479 18 501 110 784 113 350 231 732 261
846 56 213 50 385 -19 595 -46 141 -49 213 -11 271 35 53 96 82 137 65 41 -17
52 -49 52 -154 0 -106 16 -148 70 -184 42 -29 100 -30 156 -2 53 25 81 68 104
160 10 39 21 74 25 77 12 13 74 -66 85 -110 19 -69 6 -131 -57 -262 -57 -120
-58 -122 -58 -211 0 -73 4 -98 22 -130 31 -59 100 -120 168 -152 114 -52 309
-42 438 23 226 114 380 330 436 614 6 30 15 116 20 191 12 181 45 259 126 295
41 18 52 17 99 -6z m-1039 -2455 c33 -9 115 -20 183 -23 l124 -7 19 -55 c58
-162 70 -208 80 -306 8 -93 24 -159 54 -227 7 -16 -10 -17 -305 -15 l-313 3
-38 55 c-78 115 -132 302 -113 396 9 47 14 52 109 127 70 54 106 77 120 73 11
-2 47 -12 80 -21z m-506 -120 c-25 -91 17 -226 159 -508 2 -4 -34 -7 -80 -5
l-83 3 -32 60 c-48 90 -66 177 -61 293 5 110 21 152 71 182 17 11 32 18 34 17
1 -2 -2 -21 -8 -42z"/>
</g>
</svg>
